<svg xmlns="http://www.w3.org/2000/svg" viewBox="0 0 105 75" role="img" aria-label="Arco">
  <title>Arco</title>
  <g fill="currentColor">
    <rect x="0" y="0" width="15" height="15"/>
    <rect x="45" y="0" width="15" height="15"/>
    <rect x="90" y="0" width="15" height="15"/>
    <rect x="15" y="15" width="15" height="15"/>
    <rect x="45" y="15" width="15" height="15"/>
    <rect x="75" y="15" width="15" height="15"/>
    <rect x="0" y="30" width="15" height="15"/>
    <rect x="30" y="30" width="15" height="15"/>
    <rect x="60" y="30" width="15" height="15"/>
    <rect x="90" y="30" width="15" height="15"/>
    <rect x="15" y="45" width="15" height="15"/>
    <rect x="45" y="45" width="15" height="15"/>
    <rect x="75" y="45" width="15" height="15"/>
    <rect x="0" y="60" width="15" height="15"/>
    <rect x="45" y="60" width="15" height="15"/>
    <rect x="90" y="60" width="15" height="15"/>
  </g>
</svg>
